<svg xmlns="http://www.w3.org/2000/svg" width="760" height="870" viewBox="0 0 760 870" font-family="system-ui, sans-serif">
<style>
.heading{font-size:13px;font-weight:600;fill:#1f2328}
.label{font-size:12px;fill:#1f2328}
.value{font-size:12px;font-weight:600;fill:#1f2328}
.track{fill:#eef1f4}
</style>
<rect x="0.5" y="0.5" width="759" height="869" rx="8" fill="#ffffff" stroke="#d0d7de"/>
<text x="20" y="33" class="heading">simple markdown → HTML (5000×)</text>
<text x="106" y="62" class="label" text-anchor="end">satteri</text>
<rect x="116" y="50" width="528" height="16" rx="3" class="track"/>
<rect x="116" y="50" width="18.6" height="16" rx="3" fill="#2f6feb"/>
<text x="652" y="62" class="value">75 ms</text>
<text x="106" y="90" class="label" text-anchor="end">markdown-exit</text>
<rect x="116" y="78" width="528" height="16" rx="3" class="track"/>
<rect x="116" y="78" width="27.8" height="16" rx="3" fill="#9aa7b8"/>
<text x="652" y="90" class="value">112 ms</text>
<text x="106" y="118" class="label" text-anchor="end">markdown-it</text>
<rect x="116" y="106" width="528" height="16" rx="3" class="track"/>
<rect x="116" y="106" width="28.3" height="16" rx="3" fill="#9aa7b8"/>
<text x="652" y="118" class="value">114 ms</text>
<text x="106" y="146" class="label" text-anchor="end">marked</text>
<rect x="116" y="134" width="528" height="16" rx="3" class="track"/>
<rect x="116" y="134" width="33.7" height="16" rx="3" fill="#9aa7b8"/>
<text x="652" y="146" class="value">136 ms</text>
<text x="106" y="174" class="label" text-anchor="end">comark</text>
<rect x="116" y="162" width="528" height="16" rx="3" class="track"/>
<rect x="116" y="162" width="85.1" height="16" rx="3" fill="#9aa7b8"/>
<text x="652" y="174" class="value">344 ms</text>
<text x="106" y="202" class="label" text-anchor="end">remark</text>
<rect x="116" y="190" width="528" height="16" rx="3" class="track"/>
<rect x="116" y="190" width="528.0" height="16" rx="3" fill="#9aa7b8"/>
<text x="652" y="202" class="value">2,133 ms</text>
<text x="20" y="247" class="heading">medium markdown → HTML (5000×)</text>
<text x="106" y="276" class="label" text-anchor="end">satteri</text>
<rect x="116" y="264" width="528" height="16" rx="3" class="track"/>
<rect x="116" y="264" width="10.1" height="16" rx="3" fill="#2f6feb"/>
<text x="652" y="276" class="value">618 ms</text>
<text x="106" y="304" class="label" text-anchor="end">marked</text>
<rect x="116" y="292" width="528" height="16" rx="3" class="track"/>
<rect x="116" y="292" width="38.0" height="16" rx="3" fill="#9aa7b8"/>
<text x="652" y="304" class="value">2,317 ms</text>
<text x="106" y="332" class="label" text-anchor="end">markdown-exit</text>
<rect x="116" y="320" width="528" height="16" rx="3" class="track"/>
<rect x="116" y="320" width="39.9" height="16" rx="3" fill="#9aa7b8"/>
<text x="652" y="332" class="value">2,436 ms</text>
<text x="106" y="360" class="label" text-anchor="end">markdown-it</text>
<rect x="116" y="348" width="528" height="16" rx="3" class="track"/>
<rect x="116" y="348" width="44.1" height="16" rx="3" fill="#9aa7b8"/>
<text x="652" y="360" class="value">2,689 ms</text>
<text x="106" y="388" class="label" text-anchor="end">comark</text>
<rect x="116" y="376" width="528" height="16" rx="3" class="track"/>
<rect x="116" y="376" width="70.0" height="16" rx="3" fill="#9aa7b8"/>
<text x="652" y="388" class="value">4,270 ms</text>
<text x="106" y="416" class="label" text-anchor="end">remark</text>
<rect x="116" y="404" width="528" height="16" rx="3" class="track"/>
<rect x="116" y="404" width="528.0" height="16" rx="3" fill="#9aa7b8"/>
<text x="652" y="416" class="value">32,223 ms</text>
<text x="20" y="461" class="heading">GFM markdown → HTML (5000×)</text>
<text x="106" y="490" class="label" text-anchor="end">satteri</text>
<rect x="116" y="478" width="528" height="16" rx="3" class="track"/>
<rect x="116" y="478" width="13.2" height="16" rx="3" fill="#2f6feb"/>
<text x="652" y="490" class="value">1,340 ms</text>
<text x="106" y="518" class="label" text-anchor="end">marked</text>
<rect x="116" y="506" width="528" height="16" rx="3" class="track"/>
<rect x="116" y="506" width="29.2" height="16" rx="3" fill="#9aa7b8"/>
<text x="652" y="518" class="value">2,978 ms</text>
<text x="106" y="546" class="label" text-anchor="end">markdown-exit</text>
<rect x="116" y="534" width="528" height="16" rx="3" class="track"/>
<rect x="116" y="534" width="35.1" height="16" rx="3" fill="#9aa7b8"/>
<text x="652" y="546" class="value">3,570 ms</text>
<text x="106" y="574" class="label" text-anchor="end">markdown-it</text>
<rect x="116" y="562" width="528" height="16" rx="3" class="track"/>
<rect x="116" y="562" width="39.1" height="16" rx="3" fill="#9aa7b8"/>
<text x="652" y="574" class="value">3,979 ms</text>
<text x="106" y="602" class="label" text-anchor="end">comark</text>
<rect x="116" y="590" width="528" height="16" rx="3" class="track"/>
<rect x="116" y="590" width="94.3" height="16" rx="3" fill="#9aa7b8"/>
<text x="652" y="602" class="value">9,603 ms</text>
<text x="106" y="630" class="label" text-anchor="end">remark</text>
<rect x="116" y="618" width="528" height="16" rx="3" class="track"/>
<rect x="116" y="618" width="528.0" height="16" rx="3" fill="#9aa7b8"/>
<text x="652" y="630" class="value">53,775 ms</text>
<text x="20" y="675" class="heading">large document (50× medium) → HTML (100×)</text>
<text x="106" y="704" class="label" text-anchor="end">satteri</text>
<rect x="116" y="692" width="528" height="16" rx="3" class="track"/>
<rect x="116" y="692" width="8.9" height="16" rx="3" fill="#2f6feb"/>
<text x="652" y="704" class="value">682 ms</text>
<text x="106" y="732" class="label" text-anchor="end">marked</text>
<rect x="116" y="720" width="528" height="16" rx="3" class="track"/>
<rect x="116" y="720" width="32.5" height="16" rx="3" fill="#9aa7b8"/>
<text x="652" y="732" class="value">2,499 ms</text>
<text x="106" y="760" class="label" text-anchor="end">markdown-exit</text>
<rect x="116" y="748" width="528" height="16" rx="3" class="track"/>
<rect x="116" y="748" width="33.4" height="16" rx="3" fill="#9aa7b8"/>
<text x="652" y="760" class="value">2,566 ms</text>
<text x="106" y="788" class="label" text-anchor="end">markdown-it</text>
<rect x="116" y="776" width="528" height="16" rx="3" class="track"/>
<rect x="116" y="776" width="37.0" height="16" rx="3" fill="#9aa7b8"/>
<text x="652" y="788" class="value">2,841 ms</text>
<text x="106" y="816" class="label" text-anchor="end">comark</text>
<rect x="116" y="804" width="528" height="16" rx="3" class="track"/>
<rect x="116" y="804" width="57.2" height="16" rx="3" fill="#9aa7b8"/>
<text x="652" y="816" class="value">4,395 ms</text>
<text x="106" y="844" class="label" text-anchor="end">remark</text>
<rect x="116" y="832" width="528" height="16" rx="3" class="track"/>
<rect x="116" y="832" width="528.0" height="16" rx="3" fill="#9aa7b8"/>
<text x="652" y="844" class="value">40,556 ms</text>
</svg>
