<svg xmlns="http://www.w3.org/2000/svg" width="760" height="870" viewBox="0 0 760 870" font-family="system-ui, sans-serif">
<style>
.heading{font-size:13px;font-weight:600;fill:#1f2328}
.label{font-size:12px;fill:#1f2328}
.value{font-size:12px;font-weight:600;fill:#1f2328}
.track{fill:#eef1f4}
</style>
<rect x="0.5" y="0.5" width="759" height="869" rx="8" fill="#ffffff" stroke="#d0d7de"/>
<text x="20" y="33" class="heading">simple markdown → HTML (5000×)</text>
<text x="106" y="62" class="label" text-anchor="end">satteri</text>
<rect x="116" y="50" width="528" height="16" rx="3" class="track"/>
<rect x="116" y="50" width="19.2" height="16" rx="3" fill="#2f6feb"/>
<text x="652" y="62" class="value">32 ms</text>
<text x="106" y="90" class="label" text-anchor="end">markdown-exit</text>
<rect x="116" y="78" width="528" height="16" rx="3" class="track"/>
<rect x="116" y="78" width="23.2" height="16" rx="3" fill="#9aa7b8"/>
<text x="652" y="90" class="value">39 ms</text>
<text x="106" y="118" class="label" text-anchor="end">markdown-it</text>
<rect x="116" y="106" width="528" height="16" rx="3" class="track"/>
<rect x="116" y="106" width="25.1" height="16" rx="3" fill="#9aa7b8"/>
<text x="652" y="118" class="value">42 ms</text>
<text x="106" y="146" class="label" text-anchor="end">marked</text>
<rect x="116" y="134" width="528" height="16" rx="3" class="track"/>
<rect x="116" y="134" width="35.4" height="16" rx="3" fill="#9aa7b8"/>
<text x="652" y="146" class="value">60 ms</text>
<text x="106" y="174" class="label" text-anchor="end">comark</text>
<rect x="116" y="162" width="528" height="16" rx="3" class="track"/>
<rect x="116" y="162" width="76.8" height="16" rx="3" fill="#9aa7b8"/>
<text x="652" y="174" class="value">129 ms</text>
<text x="106" y="202" class="label" text-anchor="end">remark</text>
<rect x="116" y="190" width="528" height="16" rx="3" class="track"/>
<rect x="116" y="190" width="528.0" height="16" rx="3" fill="#9aa7b8"/>
<text x="652" y="202" class="value">890 ms</text>
<text x="20" y="247" class="heading">medium markdown → HTML (5000×)</text>
<text x="106" y="276" class="label" text-anchor="end">satteri</text>
<rect x="116" y="264" width="528" height="16" rx="3" class="track"/>
<rect x="116" y="264" width="8.8" height="16" rx="3" fill="#2f6feb"/>
<text x="652" y="276" class="value">237 ms</text>
<text x="106" y="304" class="label" text-anchor="end">markdown-exit</text>
<rect x="116" y="292" width="528" height="16" rx="3" class="track"/>
<rect x="116" y="292" width="34.2" height="16" rx="3" fill="#9aa7b8"/>
<text x="652" y="304" class="value">916 ms</text>
<text x="106" y="332" class="label" text-anchor="end">markdown-it</text>
<rect x="116" y="320" width="528" height="16" rx="3" class="track"/>
<rect x="116" y="320" width="37.5" height="16" rx="3" fill="#9aa7b8"/>
<text x="652" y="332" class="value">1,005 ms</text>
<text x="106" y="360" class="label" text-anchor="end">marked</text>
<rect x="116" y="348" width="528" height="16" rx="3" class="track"/>
<rect x="116" y="348" width="43.2" height="16" rx="3" fill="#9aa7b8"/>
<text x="652" y="360" class="value">1,158 ms</text>
<text x="106" y="388" class="label" text-anchor="end">comark</text>
<rect x="116" y="376" width="528" height="16" rx="3" class="track"/>
<rect x="116" y="376" width="63.0" height="16" rx="3" fill="#9aa7b8"/>
<text x="652" y="388" class="value">1,687 ms</text>
<text x="106" y="416" class="label" text-anchor="end">remark</text>
<rect x="116" y="404" width="528" height="16" rx="3" class="track"/>
<rect x="116" y="404" width="528.0" height="16" rx="3" fill="#9aa7b8"/>
<text x="652" y="416" class="value">14,148 ms</text>
<text x="20" y="461" class="heading">GFM markdown → HTML (5000×)</text>
<text x="106" y="490" class="label" text-anchor="end">satteri</text>
<rect x="116" y="478" width="528" height="16" rx="3" class="track"/>
<rect x="116" y="478" width="9.8" height="16" rx="3" fill="#2f6feb"/>
<text x="652" y="490" class="value">449 ms</text>
<text x="106" y="518" class="label" text-anchor="end">markdown-exit</text>
<rect x="116" y="506" width="528" height="16" rx="3" class="track"/>
<rect x="116" y="506" width="28.3" height="16" rx="3" fill="#9aa7b8"/>
<text x="652" y="518" class="value">1,300 ms</text>
<text x="106" y="546" class="label" text-anchor="end">markdown-it</text>
<rect x="116" y="534" width="528" height="16" rx="3" class="track"/>
<rect x="116" y="534" width="30.7" height="16" rx="3" fill="#9aa7b8"/>
<text x="652" y="546" class="value">1,410 ms</text>
<text x="106" y="574" class="label" text-anchor="end">marked</text>
<rect x="116" y="562" width="528" height="16" rx="3" class="track"/>
<rect x="116" y="562" width="30.9" height="16" rx="3" fill="#9aa7b8"/>
<text x="652" y="574" class="value">1,416 ms</text>
<text x="106" y="602" class="label" text-anchor="end">comark</text>
<rect x="116" y="590" width="528" height="16" rx="3" class="track"/>
<rect x="116" y="590" width="86.9" height="16" rx="3" fill="#9aa7b8"/>
<text x="652" y="602" class="value">3,986 ms</text>
<text x="106" y="630" class="label" text-anchor="end">remark</text>
<rect x="116" y="618" width="528" height="16" rx="3" class="track"/>
<rect x="116" y="618" width="528.0" height="16" rx="3" fill="#9aa7b8"/>
<text x="652" y="630" class="value">24,224 ms</text>
<text x="20" y="675" class="heading">large document (50× medium) → HTML (100×)</text>
<text x="106" y="704" class="label" text-anchor="end">satteri</text>
<rect x="116" y="692" width="528" height="16" rx="3" class="track"/>
<rect x="116" y="692" width="6.7" height="16" rx="3" fill="#2f6feb"/>
<text x="652" y="704" class="value">223 ms</text>
<text x="106" y="732" class="label" text-anchor="end">markdown-exit</text>
<rect x="116" y="720" width="528" height="16" rx="3" class="track"/>
<rect x="116" y="720" width="30.3" height="16" rx="3" fill="#9aa7b8"/>
<text x="652" y="732" class="value">1,014 ms</text>
<text x="106" y="760" class="label" text-anchor="end">markdown-it</text>
<rect x="116" y="748" width="528" height="16" rx="3" class="track"/>
<rect x="116" y="748" width="31.7" height="16" rx="3" fill="#9aa7b8"/>
<text x="652" y="760" class="value">1,061 ms</text>
<text x="106" y="788" class="label" text-anchor="end">marked</text>
<rect x="116" y="776" width="528" height="16" rx="3" class="track"/>
<rect x="116" y="776" width="37.8" height="16" rx="3" fill="#9aa7b8"/>
<text x="652" y="788" class="value">1,265 ms</text>
<text x="106" y="816" class="label" text-anchor="end">comark</text>
<rect x="116" y="804" width="528" height="16" rx="3" class="track"/>
<rect x="116" y="804" width="54.3" height="16" rx="3" fill="#9aa7b8"/>
<text x="652" y="816" class="value">1,817 ms</text>
<text x="106" y="844" class="label" text-anchor="end">remark</text>
<rect x="116" y="832" width="528" height="16" rx="3" class="track"/>
<rect x="116" y="832" width="528.0" height="16" rx="3" fill="#9aa7b8"/>
<text x="652" y="844" class="value">17,666 ms</text>
</svg>
